<?xml version="1.0" encoding="UTF-8" standalone="no"?>
<!-- Created with Inkscape (http://www.inkscape.org/) -->

<svg
   xmlns:dc="http://purl.org/dc/elements/1.1/"
   xmlns:cc="http://creativecommons.org/ns#"
   xmlns:rdf="http://www.w3.org/1999/02/22-rdf-syntax-ns#"
   xmlns:svg="http://www.w3.org/2000/svg"
   xmlns="http://www.w3.org/2000/svg"
   xmlns:sodipodi="http://sodipodi.sourceforge.net/DTD/sodipodi-0.dtd"
   xmlns:inkscape="http://www.inkscape.org/namespaces/inkscape"
   version="1.1"
   id="svg2"
   xml:space="preserve"
   width="341.33334"
   height="250.66667"
   viewBox="0 0 341.33334 250.66667"
   sodipodi:docname="RH_SERV_004095_01_RHOIL_Full_CMYK.svg"
   inkscape:export-filename="/home/dphillips/Pictures/RH_OIL_2160.png"
   inkscape:export-xdpi="827.23145"
   inkscape:export-ydpi="827.23145"
   inkscape:version="0.92.1 r15371"><metadata
     id="metadata8"><rdf:RDF><cc:Work
         rdf:about=""><dc:format>image/svg+xml</dc:format><dc:type
           rdf:resource="http://purl.org/dc/dcmitype/StillImage" /><dc:title></dc:title></cc:Work></rdf:RDF></metadata><defs
     id="defs6"><clipPath
       clipPathUnits="userSpaceOnUse"
       id="clipPath30"><path
         d="M 0,188 H 256 V 0 H 0 Z"
         id="path28"
         inkscape:connector-curvature="0" /></clipPath><clipPath
       clipPathUnits="userSpaceOnUse"
       id="clipPath66"><path
         d="m 126.45,174.202 h 21.948 V 138.788 H 126.45 Z"
         id="path64"
         inkscape:connector-curvature="0" /></clipPath><clipPath
       clipPathUnits="userSpaceOnUse"
       id="clipPath106"><path
         d="m 69.2531,125.564 h 8.0251 v -11.568 h -8.0251 z"
         id="path104"
         inkscape:connector-curvature="0" /></clipPath><clipPath
       clipPathUnits="userSpaceOnUse"
       id="clipPath142"><path
         d="m 166.542,150.185 h 38.972 v -38.189 h -38.972 z"
         id="path140"
         inkscape:connector-curvature="0" /></clipPath><clipPath
       clipPathUnits="userSpaceOnUse"
       id="clipPath162"><path
         d="M 190.947,131.168 H 210.6 v -17.172 h -19.653 z"
         id="path160"
         inkscape:connector-curvature="0" /></clipPath></defs><sodipodi:namedview
     pagecolor="#ffffff"
     bordercolor="#666666"
     borderopacity="1"
     objecttolerance="10"
     gridtolerance="10"
     guidetolerance="10"
     inkscape:pageopacity="0"
     inkscape:pageshadow="2"
     inkscape:window-width="1908"
     inkscape:window-height="1032"
     id="namedview4"
     showgrid="false"
     inkscape:zoom="3.386968"
     inkscape:cx="170.66667"
     inkscape:cy="125.33334"
     inkscape:window-x="1920"
     inkscape:window-y="25"
     inkscape:window-maximized="0"
     inkscape:current-layer="g10" /><g
     id="g10"
     inkscape:groupmode="layer"
     inkscape:label="RH_SERV_004095_01_RHOIL_Full_CMYK"
     transform="matrix(1.3333333,0,0,-1.3333333,0,250.66667)"><g
       id="g12"
       transform="translate(8.0001,58.0032)"><path
         d="m 0,0 v -24.003 l 120,-34 120,34 V 0 Z"
         style="fill:#ffffff;fill-opacity:1;fill-rule:nonzero;stroke:none"
         id="path14"
         inkscape:connector-curvature="0" /></g><g
       id="g16"
       transform="translate(244.9998,58.0032)"><path
         d="m 0,0 v -21.735 l -117,-33.151 -117,33.151 V 0 h -3 v -24.003 l 120,-34 120.001,34 0,24.003 z"
         style="fill:#e22434;fill-opacity:1;fill-rule:nonzero;stroke:none"
         id="path18"
         inkscape:connector-curvature="0" /></g><g
       id="g20"
       transform="translate(17.9992,52.0003)"><path
         d="m 0,0 v -10.439 l 110,-31.167 110,31.167 V 0 Z"
         style="fill:#002737;fill-opacity:1;fill-rule:nonzero;stroke:none"
         id="path22"
         inkscape:connector-curvature="0" /></g><g
       id="g32"
       transform="translate(159.0002,37.4998)"><path
         d="m 0,0 c 0,-4.97 4.029,-9 9,-9 4.971,0 9,4.03 9,9 C 18,4.971 13.971,9 9,9 4.029,9 0,4.971 0,0"
         style="fill:#003e51;fill-opacity:1;fill-rule:nonzero;stroke:none"
         id="path34"
         inkscape:connector-curvature="0" /></g><g
       id="g36"
       transform="translate(96.9992,37.4998)"><path
         d="m 0,0 c 0,-4.97 -4.029,-9 -9,-9 -4.971,0 -9,4.03 -9,9 0,4.971 4.029,9 9,9 4.971,0 9,-4.029 9,-9"
         style="fill:#003e51;fill-opacity:1;fill-rule:nonzero;stroke:none"
         id="path38"
         inkscape:connector-curvature="0" /></g><g
       id="g40"
       transform="translate(168.0002,31.4998)"><path
         d="m 0,0 c -3.309,0 -6,2.692 -6,6 0,3.309 2.691,6 6,6 C 3.309,12 6,9.309 6,6 6,2.692 3.309,0 0,0 m -80.001,0 c -3.309,0 -6,2.692 -6,6 0,3.309 2.691,6 6,6 3.309,0 6,-2.691 6,-6 0,-3.308 -2.691,-6 -6,-6 M 45.248,3.048 C 45.222,9.229 40.188,14.25 34,14.25 h -5.989 c 0.09,0.572 0.15,1.153 0.15,1.75 v 4.5 h -2.5 V 16 c 0,-4.825 -3.925,-8.75 -8.75,-8.75 H 9 C 8.967,7.25 8.938,7.233 8.906,7.231 8.305,11.618 4.552,15 0,15 -4.552,15 -8.305,11.618 -8.906,7.231 -8.938,7.234 -8.967,7.25 -9,7.25 h -13.002 c -6.203,0 -11.25,-5.047 -11.25,-11.25 V -9.111 H -46.75 V -4 c 0,6.203 -5.047,11.25 -11.25,11.25 h -13.001 c -0.033,0 -0.062,-0.016 -0.094,-0.019 -0.601,4.387 -4.354,7.769 -8.906,7.769 -4.552,0 -8.305,-3.382 -8.906,-7.769 -0.032,0.003 -0.061,0.019 -0.094,0.019 h -7.911 c -4.825,0 -8.75,3.925 -8.75,8.75 v 4.5 h -2.5 V 16 c 0,-0.597 0.06,-1.178 0.15,-1.75 h -5.989 c -6.187,0 -11.222,-5.021 -11.247,-11.202 l 2.497,-0.708 V 3 c 0,4.825 3.925,8.75 8.75,8.75 h 6.679 c 1.68,-4.101 5.711,-7 10.41,-7 h 7.911 c 0.033,0 0.062,0.017 0.094,0.019 0.601,-4.387 4.354,-7.769 8.906,-7.769 4.552,0 8.305,3.382 8.906,7.769 0.032,-0.002 0.061,-0.019 0.094,-0.019 H -58 c 4.825,0 8.75,-3.925 8.75,-8.75 V -9.111 H -54 c -3.978,0 -7.552,-2.057 -9.565,-5.318 l 2.532,-0.718 c 1.615,2.186 4.191,3.536 7.033,3.536 h 28 c 2.828,0 5.413,-1.351 7.031,-3.536 l 2.532,0.717 c -2.019,3.258 -5.605,5.319 -9.563,5.319 h -4.752 V -4 c 0,4.825 3.925,8.75 8.75,8.75 H -9 c 0.033,0 0.062,0.016 0.094,0.019 C -8.305,0.382 -4.552,-3 0,-3 4.552,-3 8.305,0.382 8.906,4.769 8.938,4.767 8.967,4.75 9,4.75 h 7.911 c 4.699,0 8.73,2.899 10.41,7 H 34 c 4.825,0 8.75,-3.925 8.75,-8.75 V 2.34 Z"
         style="fill:#406b7a;fill-opacity:1;fill-rule:nonzero;stroke:none"
         id="path42"
         inkscape:connector-curvature="0" /></g><g
       id="g44"
       transform="translate(248.0002,105.9959)"><path
         d="m 0,0 v 48.004 l -120,34 -120,-34 V 0 Z"
         style="fill:#ffffff;fill-opacity:1;fill-rule:nonzero;stroke:none"
         id="path46"
         inkscape:connector-curvature="0" /></g><g
       id="g48"
       transform="translate(237.9982,146.4359)"><path
         d="M 0,0 V -34.44 H -220 V 0 l 92.71,26.27 c 4.74,4.33 10.84,6.71 17.29,6.71 6.45,0 12.54,-2.37 17.29,-6.71 z"
         style="fill:#002737;fill-opacity:1;fill-rule:nonzero;stroke:none"
         id="path50"
         inkscape:connector-curvature="0" /></g><g
       id="g52"
       transform="translate(11.0002,151.7318)"><path
         d="M 0,0 117,33.15 234,0 v -45.732 h 3 V 2.269 l -120,34 -120,-34 v -48.001 h 3 z"
         style="fill:#e22434;fill-opacity:1;fill-rule:nonzero;stroke:none"
         id="path54"
         inkscape:connector-curvature="0" /></g><g
       id="g56"
       transform="translate(149.3254,162.8431)"><path
         d="M 0,0 C -0.582,1.356 -1.305,2.678 -2.146,3.923 -2.53,4.476 -2.986,5.078 -3.489,5.698 -4.01,6.312 -4.5,6.846 -4.973,7.309 c -4.389,4.366 -10.194,6.768 -16.352,6.768 -6.158,0 -11.963,-2.402 -16.346,-6.762 -0.479,-0.469 -0.97,-1.003 -1.507,-1.637 -0.48,-0.591 -0.935,-1.194 -1.338,-1.77 -0.829,-1.229 -1.552,-2.552 -2.138,-3.916 -1.205,-2.857 -1.819,-5.882 -1.819,-8.983 0,-3.243 0.301,-6.061 0.919,-8.615 0.118,-0.474 0.24,-0.936 0.371,-1.386 l 0.438,-1.289 c 0.135,-0.393 0.29,-0.766 0.445,-1.138 0.356,-0.827 0.752,-1.602 1.219,-2.389 1.289,-2.177 2.833,-3.894 4.304,-5.465 0.423,-0.456 0.817,-0.873 1.213,-1.291 l 0.72,-0.79 c 0.317,-0.353 0.618,-0.7 0.919,-1.047 0.168,-0.194 0.326,-0.404 0.471,-0.601 0.265,-0.33 0.537,-0.713 0.798,-1.108 0.397,-0.584 0.76,-1.225 1.068,-1.89 0.679,-1.469 1.086,-2.995 1.245,-4.668 0.026,-0.321 0.05,-0.646 0.062,-0.96 0.023,-0.275 0.035,-0.59 0.035,-0.932 0,-0.122 0.025,-0.236 0.051,-0.352 h 17.74 c 0.024,0.116 0.05,0.23 0.05,0.352 0,0.34 0.012,0.654 0.038,0.981 0.01,0.267 0.033,0.591 0.056,0.891 0.162,1.694 0.57,3.221 1.249,4.688 0.31,0.67 0.673,1.311 1.079,1.906 0.248,0.378 0.52,0.762 0.817,1.134 0.112,0.154 0.27,0.363 0.44,0.559 0.328,0.377 0.616,0.71 0.916,1.043 l 0.864,0.941 c 0.347,0.369 0.699,0.74 1.066,1.138 1.479,1.579 3.024,3.296 4.308,5.469 0.471,0.795 0.868,1.569 1.212,2.369 0.155,0.373 0.316,0.757 0.456,1.163 l 0.453,1.339 c 0.115,0.397 0.236,0.859 0.356,1.342 0.616,2.549 0.917,5.367 0.917,8.606 0,3.1 -0.613,6.125 -1.822,8.991"
         style="fill:#f5a81c;fill-opacity:1;fill-rule:nonzero;stroke:none"
         id="path58"
         inkscape:connector-curvature="0" /></g><g
       id="g60"><g
         id="g62" /><g
         id="g74"><g
           clip-path="url(#clipPath66)"
           id="g72"
           style="opacity:0.30000299"><g
             transform="translate(148.3986,153.848)"
             id="g70"><path
               d="M 0,0 C 0,-2.97 -0.28,-5.65 -0.841,-7.93 -0.94,-8.35 -1.051,-8.76 -1.16,-9.15 l -0.42,-1.25 c -0.12,-0.34 -0.261,-0.67 -0.38,-0.96 -0.301,-0.69 -0.641,-1.36 -1.051,-2.06 -0.285,-0.488 -0.604,-0.961 -0.941,-1.415 -0.108,-0.144 -0.288,-0.225 -0.468,-0.225 -0.272,0 -0.549,0.196 -0.62,0.462 -0.041,0.149 0.001,0.315 0.013,0.467 0.016,0.203 0.027,0.407 0.027,0.611 0,2.44 -1.03,4.64 -2.681,6.19 -1,0.94 -1.609,2.25 -1.479,3.62 0.109,1.18 0.16,2.42 0.16,3.71 0,2.73 -0.54,5.4 -1.61,7.93 -0.51,1.18 -1.151,2.35 -1.89,3.45 -0.32,0.46 -0.74,1.01 -1.2,1.58 -0.43,0.51 -0.861,0.98 -1.271,1.38 -1.659,1.62 -3.58,3.04 -5.699,4.01 -0.341,0.16 -0.71,0.34 -0.99,0.61 -0.13,0.13 -0.24,0.3 -0.28,0.48 -0.031,0.18 0.02,0.34 0.12,0.47 0.08,0.11 0.2,0.2 0.33,0.25 0.5,0.21 1.08,0.2 1.61,0.19 0.73,-0.01 1.449,-0.11 2.18,-0.2 1.07,-0.15 2.13,-0.37 3.17,-0.68 2.07,-0.62 4.03,-1.58 5.8,-2.82 0.99,-0.69 1.9,-1.47 2.759,-2.31 0.41,-0.4 0.841,-0.87 1.271,-1.38 0.46,-0.57 0.88,-1.12 1.2,-1.58 0.739,-1.1 1.38,-2.27 1.89,-3.45 C -0.54,5.4 0,2.73 0,0"
               style="fill:#ffffff;fill-opacity:1;fill-rule:nonzero;stroke:none"
               id="path68"
               inkscape:connector-curvature="0" /></g></g></g></g><g
       id="g76"
       transform="translate(60.0314,115.6771)"><path
         d="m 0,0 c -1.527,-1.719 -3.657,-2.596 -5.793,-2.596 -1.82,0 -3.645,0.637 -5.108,1.932 -1.539,1.363 -2.453,3.244 -2.577,5.297 -0.123,2.06 0.565,4.044 1.937,5.588 2.831,3.183 7.722,3.48 10.901,0.664 C 0.897,9.524 1.812,7.642 1.934,5.586 2.057,3.525 1.37,1.541 0,0 m 12.837,27.736 c -0.537,0.45 -1.301,0.449 -1.84,-0.003 L 5.683,23.257 c -1.935,1.184 -4.016,2.047 -6.22,2.564 l -0.583,6.91 c -0.052,0.693 -0.607,1.229 -1.292,1.289 -2.048,0.171 -4.139,0.176 -6.239,10e-4 -0.685,-0.062 -1.233,-0.609 -1.303,-1.301 l -0.597,-6.912 c -2.187,-0.523 -4.27,-1.392 -6.207,-2.581 l -5.314,4.47 c -0.53,0.441 -1.311,0.44 -1.831,-0.011 -1.59,-1.345 -3.067,-2.819 -4.412,-4.406 -0.461,-0.529 -0.462,-1.308 -0.011,-1.827 l 4.48,-5.303 c -1.199,-1.942 -2.059,-4.013 -2.591,-6.205 l -6.917,-0.59 c -0.694,-0.069 -1.241,-0.616 -1.302,-1.3 -0.167,-2.053 -0.169,-4.149 0.002,-6.227 0.051,-0.693 0.597,-1.238 1.292,-1.289 l 6.916,-0.588 c 0.3,-1.252 0.724,-2.461 1.244,-3.632 H 8.608 C 6.123,-0.506 4.727,3.445 4.727,7.584 c 0,7.1 4.11,13.55 10.51,16.561 v 1.375 c -0.765,0.769 -1.566,1.511 -2.4,2.216"
         style="fill:#406b7a;fill-opacity:1;fill-rule:nonzero;stroke:none"
         id="path78"
         inkscape:connector-curvature="0" /></g><g
       id="g80"
       transform="translate(60.8469,128.9217)"><path
         d="m 0,0 c -0.155,0 -0.312,0.048 -0.447,0.149 -2.496,1.862 -5.772,2.495 -8.763,1.694 -0.406,-0.108 -0.811,0.131 -0.919,0.531 -0.107,0.399 0.131,0.811 0.53,0.918 C -6.168,4.21 -2.41,3.485 0.449,1.351 0.781,1.104 0.85,0.634 0.603,0.302 0.455,0.104 0.229,0 0,0"
         style="fill:#002737;fill-opacity:1;fill-rule:nonzero;stroke:none"
         id="path82"
         inkscape:connector-curvature="0" /></g><g
       id="g84"
       transform="translate(44.7639,114.616)"><path
         d="m 0,0 c -0.261,0 -0.514,0.136 -0.652,0.378 -0.327,0.573 -0.61,1.182 -0.839,1.81 L -1.559,2.379 C -3.216,7.167 -1.623,12.47 2.403,15.576 2.733,15.83 3.203,15.767 3.455,15.44 3.708,15.113 3.647,14.642 3.319,14.389 -0.196,11.676 -1.587,7.048 -0.142,2.873 L -0.079,2.694 C 0.118,2.154 0.365,1.622 0.65,1.122 0.855,0.762 0.73,0.304 0.371,0.099 0.254,0.032 0.126,0 0,0"
         style="fill:#002737;fill-opacity:1;fill-rule:nonzero;stroke:none"
         id="path86"
         inkscape:connector-curvature="0" /></g><path
       d="m 256,58 h -8 v 48 h 8 z"
       style="fill:#e22434;fill-opacity:1;fill-rule:nonzero;stroke:none"
       id="path88"
       inkscape:connector-curvature="0" /><path
       d="M 8,58 H 0 v 48 h 8 z"
       style="fill:#e22434;fill-opacity:1;fill-rule:nonzero;stroke:none"
       id="path90"
       inkscape:connector-curvature="0" /><g
       id="g92"
       transform="translate(98.841,123.2625)"><path
         d="m 0,0 c 0,6.437 -3.853,11.981 -9.383,14.435 -0.684,0.304 -1.129,0.978 -1.129,1.728 v 10.882 c 1.081,0 1.948,0.901 1.893,1.995 -0.052,1.025 -0.97,1.796 -1.997,1.796 h -10.355 c -1.027,0 -1.945,-0.771 -1.997,-1.796 -0.054,-1.094 0.812,-1.995 1.893,-1.995 V 16.163 c 0,-0.75 -0.445,-1.424 -1.129,-1.728 -5.53,-2.454 -9.384,-7.998 -9.384,-14.435 0,-4.414 1.813,-8.403 4.731,-11.267 H -4.729 C -1.812,-8.403 0,-4.414 0,0"
         style="fill:#406b7a;fill-opacity:1;fill-rule:nonzero;stroke:none"
         id="path94"
         inkscape:connector-curvature="0" /></g><g
       id="g96"
       transform="translate(71.9836,111.9959)"><path
         d="m 0,0 h 22.127 c 2.919,2.864 4.73,6.853 4.73,11.267 0,1.51 -0.219,2.968 -0.615,4.352 -3.73,-0.038 -5.715,-0.537 -7.618,-1.024 -1.945,-0.498 -3.782,-0.969 -7.561,-0.969 -3.779,0 -5.616,0.471 -7.561,0.969 -1.903,0.487 -3.887,0.986 -7.617,1.024 C -4.511,14.235 -4.73,12.777 -4.73,11.267 -4.73,6.853 -2.918,2.864 0,0"
         style="fill:#f5a81c;fill-opacity:1;fill-rule:nonzero;stroke:none"
         id="path98"
         inkscape:connector-curvature="0" /></g><g
       id="g100"><g
         id="g102" /><g
         id="g114"><g
           clip-path="url(#clipPath106)"
           id="g112"
           style="opacity:0.30000299"><g
             transform="translate(74.2531,123.2625)"
             id="g110"><path
               d="M 0,0 C 0,0.526 0.036,1.042 0.087,1.555 -1.212,1.879 -2.643,2.183 -4.804,2.302 -4.935,1.538 -5,0.768 -5,0 c 0,-3.464 1.266,-6.725 3.58,-9.267 H 3.025 C 1.131,-6.664 0,-3.468 0,0"
               style="fill:#ffffff;fill-opacity:1;fill-rule:nonzero;stroke:none"
               id="path108"
               inkscape:connector-curvature="0" /></g></g></g></g><g
       id="g116"
       transform="translate(186.4279,114.2059)"><path
         d="m 0,0 c 0,5.56 3.63,10.51 8.811,12.25 1.976,4.76 6.36,8.193 11.415,9.022 v 12.782 c 0,1.062 -0.864,1.925 -1.925,1.925 H -17.96 c -1.061,0 -1.926,-0.863 -1.926,-1.925 V -2.206 H 0.18 C 0.08,-1.516 0,-0.639 0,0"
         style="fill:#f5a81c;fill-opacity:1;fill-rule:nonzero;stroke:none"
         id="path118"
         inkscape:connector-curvature="0" /></g><g
       id="g120"
       transform="translate(199.7922,147.721)"><path
         d="m 0,0 c -0.572,0 -1.036,-0.464 -1.036,-1.036 0,-0.572 0.464,-1.036 1.036,-1.036 0.572,0 1.036,0.464 1.036,1.036 C 1.036,-0.464 0.572,0 0,0"
         style="fill:#002737;fill-opacity:1;fill-rule:nonzero;stroke:none"
         id="path122"
         inkscape:connector-curvature="0" /></g><g
       id="g124"
       transform="translate(203.1838,147.721)"><path
         d="m 0,0 c -0.572,0 -1.036,-0.464 -1.036,-1.036 0,-0.572 0.464,-1.036 1.036,-1.036 0.572,0 1.036,0.464 1.036,1.036 C 1.036,-0.464 0.572,0 0,0"
         style="fill:#002737;fill-opacity:1;fill-rule:nonzero;stroke:none"
         id="path126"
         inkscape:connector-curvature="0" /></g><g
       id="g128"
       transform="translate(184.4289,127.6053)"><path
         d="m 0,0 1.125,3.213 c 0.094,0.255 0.19,0.543 0.292,0.864 0.1,0.322 0.196,0.633 0.29,0.934 0.094,0.301 0.181,0.583 0.262,0.844 0.08,0.261 0.14,0.465 0.18,0.612 C 2.19,6.32 2.253,6.116 2.341,5.855 2.428,5.594 2.521,5.309 2.622,5.001 2.722,4.693 2.825,4.385 2.933,4.077 3.04,3.769 3.134,3.488 3.214,3.234 L 4.339,0 Z m 5.822,-4.252 c 0.528,0.527 1.104,1.005 1.718,1.437 L 3.295,8.838 H 1.065 L -3.996,-5.223 h 2.188 l 1.165,3.335 h 5.624 z"
         style="fill:#002737;fill-opacity:1;fill-rule:nonzero;stroke:none"
         id="path130"
         inkscape:connector-curvature="0" /></g><g
       id="g132"
       transform="translate(196.3996,147.721)"><path
         d="m 0,0 c -0.572,0 -1.036,-0.464 -1.036,-1.036 0,-0.572 0.464,-1.036 1.036,-1.036 0.572,0 1.036,0.464 1.036,1.036 C 1.036,-0.464 0.572,0 0,0"
         style="fill:#002737;fill-opacity:1;fill-rule:nonzero;stroke:none"
         id="path134"
         inkscape:connector-curvature="0" /></g><g
       id="g136"><g
         id="g138" /><g
         id="g150"><g
           clip-path="url(#clipPath142)"
           id="g148"
           style="opacity:0.30000299"><g
             transform="translate(168.468,150.1854)"
             id="g146"><path
               d="m 0,0 c -1.062,0 -1.926,-0.864 -1.926,-1.925 v -36.26 c 0,-0.002 10e-4,-0.003 10e-4,-0.004 H -0.93 C 12.729,-24.469 27.4,-9.759 37.047,-0.172 36.806,-0.063 36.541,0 36.261,0 Z"
               style="fill:#ffffff;fill-opacity:1;fill-rule:nonzero;stroke:none"
               id="path144"
               inkscape:connector-curvature="0" /></g></g></g></g><g
       id="g152"
       transform="translate(231.7004,118.5418)"><path
         d="m 0,0 c -0.875,3.721 -4.197,6.378 -8.06,6.378 -0.951,0 -1.88,-0.161 -2.77,-0.478 -1.601,5.166 -6.395,8.726 -11.855,8.726 -5.446,0 -10.28,-3.592 -11.865,-8.774 -4.786,-1.033 -8.226,-5.269 -8.226,-10.196 0,-0.563 0.102,-1.572 0.211,-2.202 H 6.3 v 2.675 C 4.912,-1.699 2.499,-0.092 0,0"
         style="fill:#406b7a;fill-opacity:1;fill-rule:nonzero;stroke:none"
         id="path154"
         inkscape:connector-curvature="0" /></g><g
       id="g156"><g
         id="g158" /><g
         id="g170"><g
           clip-path="url(#clipPath162)"
           id="g168"
           style="opacity:0.16999799"><g
             transform="translate(203.5715,122.4378)"
             id="g166"><path
               d="M 0,0 0.765,0.165 C 1.001,0.216 1.191,0.391 1.262,0.623 L 1.49,1.37 C 2.324,4.096 4.256,6.301 6.703,7.562 7.221,7.83 7.094,8.614 6.514,8.674 5.509,8.779 4.465,8.74 3.399,8.526 -0.456,7.753 -3.48,4.741 -4.629,0.98 L -4.83,0.323 C -4.844,0.276 -4.882,0.241 -4.93,0.231 L -6,0 c -3.666,-0.791 -6.372,-3.866 -6.623,-7.834 -0.022,-0.331 0.256,-0.608 0.587,-0.608 h 3.431 c 1.026,0 1.932,0.717 2.117,1.726 0.634,3.466 3.167,6 6.488,6.716"
               style="fill:#003e51;fill-opacity:1;fill-rule:nonzero;stroke:none"
               id="path164"
               inkscape:connector-curvature="0" /></g></g></g></g><path
       d="M 248,58 H 8 v 48 h 240 z"
       style="fill:#e22434;fill-opacity:1;fill-rule:nonzero;stroke:none"
       id="path172"
       inkscape:connector-curvature="0" /><g
       id="g174"
       transform="translate(23.0451,92.5789)"><path
         d="M 0,0 H -2.079 V -2.045 H 0 c 0.738,0 1.136,0.341 1.136,1.034 C 1.136,-0.295 0.705,0 0,0 m 0.943,-6.409 -1.421,2.864 h -1.601 v -2.864 h -1.592 v 7.955 h 3.705 c 1.5,0 2.738,-0.83 2.738,-2.523 0,-1.193 -0.511,-1.943 -1.522,-2.341 l 1.522,-3.091 z"
         style="fill:#ffffff;fill-opacity:1;fill-rule:nonzero;stroke:none"
         id="path176"
         inkscape:connector-curvature="0" /></g><g
       id="g178"
       transform="translate(27.8342,86.1702)"><path
         d="M 0,0 V 7.955 H 5.522 V 6.398 H 1.591 V 5.023 H 3.875 V 3.477 H 1.591 V 1.557 H 5.693 V 0 Z"
         style="fill:#ffffff;fill-opacity:1;fill-rule:nonzero;stroke:none"
         id="path180"
         inkscape:connector-curvature="0" /></g><g
       id="g182"
       transform="translate(37.9973,92.5789)"><path
         d="m 0,0 h -0.841 v -4.863 h 0.783 c 1.67,0 2.432,0.977 2.432,2.431 C 2.374,-0.807 1.681,0 0,0 m -0.058,-6.409 h -2.375 v 7.955 h 2.49 c 2.272,0 3.954,-1.068 3.954,-3.978 0,-2.795 -2.023,-3.977 -4.069,-3.977"
         style="fill:#ffffff;fill-opacity:1;fill-rule:nonzero;stroke:none"
         id="path184"
         inkscape:connector-curvature="0" /></g><g
       id="g186"
       transform="translate(52.4338,86.1702)"><path
         d="M 0,0 V 3.341 H -3.261 V 0 h -1.591 v 7.955 h 1.591 V 4.909 H 0 V 7.955 H 1.592 V 0 Z"
         style="fill:#ffffff;fill-opacity:1;fill-rule:nonzero;stroke:none"
         id="path188"
         inkscape:connector-curvature="0" /></g><g
       id="g190"
       transform="translate(60.0295,90.8973)"><path
         d="M 0,0 C -0.159,0.466 -0.318,0.943 -0.397,1.239 -0.478,0.943 -0.637,0.466 -0.796,0 l -0.512,-1.443 h 1.819 z m 1.682,-4.727 -0.625,1.773 h -2.91 l -0.625,-1.773 h -1.705 l 3.046,7.955 h 1.546 l 3.023,-7.955 z"
         style="fill:#ffffff;fill-opacity:1;fill-rule:nonzero;stroke:none"
         id="path192"
         inkscape:connector-curvature="0" /></g><g
       id="g194"
       transform="translate(67.5685,92.5565)"><path
         d="M 0,0 V -6.386 H -1.592 V 0 H -3.875 V 1.568 H 2.283 V 0 Z"
         style="fill:#ffffff;fill-opacity:1;fill-rule:nonzero;stroke:none"
         id="path196"
         inkscape:connector-curvature="0" /></g><g
       id="g198"
       transform="translate(23.7775,79.8211)"><path
         d="m 0,0 c -1.672,0 -2.781,-1.348 -2.781,-3.77 0,-2.422 1.16,-3.804 2.832,-3.804 1.672,0 2.78,1.347 2.78,3.77 C 2.831,-1.381 1.671,0 0,0 m 0.017,-9.946 c -3.122,0 -5.255,2.287 -5.255,6.142 0,3.855 2.167,6.176 5.289,6.176 3.105,0 5.237,-2.287 5.237,-6.142 0,-3.855 -2.166,-6.176 -5.271,-6.176"
         style="fill:#ffffff;fill-opacity:1;fill-rule:nonzero;stroke:none"
         id="path200"
         inkscape:connector-curvature="0" /></g><g
       id="g202"
       transform="translate(37.1144,79.6849)"><path
         d="m 0,0 h -2.746 v -3.071 h 2.78 c 1.109,0 1.706,0.512 1.706,1.553 C 1.74,-0.478 1.058,0 0,0 m -0.119,-5.391 h -2.627 v -4.231 h -2.39 V 2.32 h 5.221 c 2.252,0 4.112,-1.245 4.112,-3.787 0,-2.764 -1.843,-3.924 -4.316,-3.924"
         style="fill:#ffffff;fill-opacity:1;fill-rule:nonzero;stroke:none"
         id="path204"
         inkscape:connector-curvature="0" /></g><g
       id="g206"
       transform="translate(44.0881,70.0633)"><path
         d="M 0,0 V 11.941 H 8.291 V 9.604 H 2.389 V 7.541 H 5.818 V 5.22 H 2.389 V 2.337 H 8.548 V 0 Z"
         style="fill:#ffffff;fill-opacity:1;fill-rule:nonzero;stroke:none"
         id="path208"
         inkscape:connector-curvature="0" /></g><g
       id="g210"
       transform="translate(63.2267,70.0633)"><path
         d="m 0,0 -4.386,6.517 c -0.289,0.443 -0.681,1.041 -0.835,1.347 0,-0.443 0.034,-1.944 0.034,-2.61 V 0 h -2.354 v 11.941 h 2.286 L -1.024,5.63 c 0.29,-0.444 0.682,-1.041 0.836,-1.348 0,0.443 -0.035,1.945 -0.035,2.61 v 5.049 H 2.131 V 0 Z"
         style="fill:#ffffff;fill-opacity:1;fill-rule:nonzero;stroke:none"
         id="path212"
         inkscape:connector-curvature="0" /></g><path
       d="m 74.566,82.005 h 2.388 V 70.064 h -2.388 z"
       style="fill:#ffffff;fill-opacity:1;fill-rule:nonzero;stroke:none"
       id="path214"
       inkscape:connector-curvature="0" /><g
       id="g216"
       transform="translate(88.2453,70.0633)"><path
         d="m 0,0 -4.385,6.517 c -0.29,0.443 -0.681,1.041 -0.836,1.347 0,-0.443 0.035,-1.944 0.035,-2.61 V 0 h -2.355 v 11.941 h 2.286 L -1.024,5.63 c 0.291,-0.444 0.682,-1.041 0.837,-1.348 0,0.443 -0.035,1.945 -0.035,2.61 v 5.049 H 2.132 V 0 Z"
         style="fill:#ffffff;fill-opacity:1;fill-rule:nonzero;stroke:none"
         id="path218"
         inkscape:connector-curvature="0" /></g><g
       id="g220"
       transform="translate(101.4973,70.0633)"><path
         d="m 0,0 -4.385,6.517 c -0.29,0.443 -0.682,1.041 -0.836,1.347 0,-0.443 0.034,-1.944 0.034,-2.61 V 0 h -2.354 v 11.941 h 2.286 L -1.024,5.63 c 0.29,-0.444 0.682,-1.041 0.836,-1.348 0,0.443 -0.035,1.945 -0.035,2.61 v 5.049 H 2.132 V 0 Z"
         style="fill:#ffffff;fill-opacity:1;fill-rule:nonzero;stroke:none"
         id="path222"
         inkscape:connector-curvature="0" /></g><g
       id="g224"
       transform="translate(111.7805,79.8211)"><path
         d="m 0,0 c -1.672,0 -2.781,-1.348 -2.781,-3.77 0,-2.422 1.16,-3.804 2.832,-3.804 1.672,0 2.78,1.347 2.78,3.77 C 2.831,-1.381 1.672,0 0,0 m 0.017,-9.946 c -3.122,0 -5.255,2.287 -5.255,6.142 0,3.855 2.167,6.176 5.289,6.176 3.105,0 5.237,-2.287 5.237,-6.142 0,-3.855 -2.166,-6.176 -5.271,-6.176"
         style="fill:#ffffff;fill-opacity:1;fill-rule:nonzero;stroke:none"
         id="path226"
         inkscape:connector-curvature="0" /></g><g
       id="g228"
       transform="translate(124.8937,70.0633)"><path
         d="m 0,0 h -2.321 l -4.248,11.941 h 2.644 l 2.252,-6.909 c 0.223,-0.665 0.461,-1.535 0.564,-1.961 0.102,0.443 0.324,1.262 0.546,1.961 l 2.201,6.909 h 2.609 z"
         style="fill:#ffffff;fill-opacity:1;fill-rule:nonzero;stroke:none"
         id="path230"
         inkscape:connector-curvature="0" /></g><g
       id="g232"
       transform="translate(135.3957,77.16)"><path
         d="M 0,0 C -0.238,0.7 -0.478,1.416 -0.597,1.859 -0.716,1.416 -0.955,0.7 -1.193,0 l -0.768,-2.167 h 2.73 z M 2.525,-7.097 1.587,-4.436 H -2.78 L -3.719,-7.097 H -6.276 L -1.705,4.845 H 0.614 L 5.153,-7.097 Z"
         style="fill:#ffffff;fill-opacity:1;fill-rule:nonzero;stroke:none"
         id="path234"
         inkscape:connector-curvature="0" /></g><g
       id="g236"
       transform="translate(146.7043,79.6507)"><path
         d="M 0,0 V -9.587 H -2.388 V 0 H -5.816 V 2.354 H 3.43 V 0 Z"
         style="fill:#ffffff;fill-opacity:1;fill-rule:nonzero;stroke:none"
         id="path238"
         inkscape:connector-curvature="0" /></g><path
       d="m 153.114,82.005 h 2.389 V 70.064 h -2.389 z"
       style="fill:#ffffff;fill-opacity:1;fill-rule:nonzero;stroke:none"
       id="path240"
       inkscape:connector-curvature="0" /><g
       id="g242"
       transform="translate(163.8264,79.8211)"><path
         d="m 0,0 c -1.672,0 -2.781,-1.348 -2.781,-3.77 0,-2.422 1.16,-3.804 2.832,-3.804 1.672,0 2.78,1.347 2.78,3.77 C 2.831,-1.381 1.672,0 0,0 m 0.017,-9.946 c -3.122,0 -5.254,2.287 -5.254,6.142 0,3.855 2.167,6.176 5.288,6.176 3.105,0 5.237,-2.287 5.237,-6.142 0,-3.855 -2.166,-6.176 -5.271,-6.176"
         style="fill:#ffffff;fill-opacity:1;fill-rule:nonzero;stroke:none"
         id="path244"
         inkscape:connector-curvature="0" /></g><g
       id="g246"
       transform="translate(179.5685,70.0633)"><path
         d="m 0,0 -4.386,6.517 c -0.289,0.443 -0.681,1.041 -0.835,1.347 0,-0.443 0.034,-1.944 0.034,-2.61 V 0 h -2.354 v 11.941 h 2.286 L -1.023,5.63 c 0.289,-0.444 0.681,-1.041 0.835,-1.348 0,0.443 -0.035,1.945 -0.035,2.61 v 5.049 H 2.131 V 0 Z"
         style="fill:#ffffff;fill-opacity:1;fill-rule:nonzero;stroke:none"
         id="path248"
         inkscape:connector-curvature="0" /></g><g
       id="g250"
       transform="translate(190.7355,70.0633)"><path
         d="M 0,0 V 11.941 H 2.39 V 2.354 H 8.377 V 0 Z"
         style="fill:#ffffff;fill-opacity:1;fill-rule:nonzero;stroke:none"
         id="path252"
         inkscape:connector-curvature="0" /></g><g
       id="g254"
       transform="translate(207.2463,77.16)"><path
         d="M 0,0 C -0.238,0.7 -0.478,1.416 -0.597,1.859 -0.716,1.416 -0.955,0.7 -1.193,0 l -0.768,-2.167 h 2.73 z M 2.525,-7.097 1.587,-4.436 H -2.78 L -3.719,-7.097 H -6.276 L -1.705,4.845 H 0.614 L 5.153,-7.097 Z"
         style="fill:#ffffff;fill-opacity:1;fill-rule:nonzero;stroke:none"
         id="path256"
         inkscape:connector-curvature="0" /></g><g
       id="g258"
       transform="translate(220.6349,75.4202)"><path
         d="M 0,0 H -3.174 V -3.088 H 0 c 1.159,0 1.705,0.614 1.705,1.552 C 1.705,-0.512 1.159,0 0,0 M -0.137,4.384 H -3.174 V 2.115 h 3.156 c 0.991,0 1.349,0.461 1.349,1.126 0,0.751 -0.427,1.143 -1.468,1.143 m 0.052,-9.741 H -5.511 V 6.584 h 5.477 c 2.319,0 3.787,-1.108 3.787,-3.155 0,-1.024 -0.478,-1.843 -1.262,-2.32 0.954,-0.427 1.671,-1.297 1.671,-2.61 0,-2.508 -1.688,-3.856 -4.247,-3.856"
         style="fill:#ffffff;fill-opacity:1;fill-rule:nonzero;stroke:none"
         id="path260"
         inkscape:connector-curvature="0" /></g><g
       id="g262"
       transform="translate(231.8049,69.8753)"><path
         d="m 0,0 c -1.997,0 -3.736,0.836 -4.642,2.167 l 1.725,1.535 c 0.835,-0.973 1.91,-1.365 3.053,-1.365 1.416,0 2.081,0.392 2.081,1.297 0,0.767 -0.409,1.109 -2.661,1.621 -2.201,0.511 -3.737,1.211 -3.737,3.565 0,2.167 1.911,3.497 4.266,3.497 1.859,0 3.224,-0.699 4.35,-1.876 L 2.712,8.769 C 1.944,9.553 1.092,9.997 0,9.997 c -1.279,0 -1.706,-0.546 -1.706,-1.075 0,-0.75 0.512,-0.989 2.404,-1.433 C 2.593,7.046 4.691,6.397 4.691,3.805 4.691,1.536 3.258,0 0,0"
         style="fill:#ffffff;fill-opacity:1;fill-rule:nonzero;stroke:none"
         id="path264"
         inkscape:connector-curvature="0" /></g><g
       id="g266"
       transform="translate(134.8967,138.0809)"><path
         d="M 0,0 H -3.25 V 3.25 C -3.25,5.042 -1.792,6.5 0,6.5 1.792,6.5 3.25,5.042 3.25,3.25 3.25,1.458 1.792,0 0,0 m -10.543,0 h -3.25 c -1.792,0 -3.25,1.458 -3.25,3.25 0,1.792 1.458,3.25 3.25,3.25 1.792,0 3.25,-1.458 3.25,-3.25 z M 0,8 C -2.619,8 -4.75,5.869 -4.75,3.25 V 0 h -4.293 v 3.25 c 0,2.619 -2.131,4.75 -4.75,4.75 -2.619,0 -4.75,-2.131 -4.75,-4.75 0,-2.619 2.131,-4.75 4.75,-4.75 h 3.25 v -16.649 h 1.5 V -1.5 h 4.293 v -16.649 h 1.5 V -1.5 H 0 c 2.619,0 4.75,2.131 4.75,4.75 C 4.75,5.869 2.619,8 0,8"
         style="fill:#c98b16;fill-opacity:1;fill-rule:nonzero;stroke:none"
         id="path268"
         inkscape:connector-curvature="0" /></g><g
       id="g270"
       transform="translate(137.1174,117.4271)"><path
         d="m 0,0 h -18.235 c -0.165,-0.23 -0.296,-0.493 -0.336,-0.792 -0.018,-0.108 -0.024,-0.187 -0.024,-0.265 V -5.431 H 0.36 v 4.374 C 0.36,-0.979 0.354,-0.9 0.343,-0.828 0.299,-0.502 0.166,-0.233 0,0"
         style="fill:#003e51;fill-opacity:1;fill-rule:nonzero;stroke:none"
         id="path272"
         inkscape:connector-curvature="0" /></g><g
       id="g274"
       transform="translate(149.2629,136.7708)"><path
         d="m 0,0 c -0.405,-0.615 -0.82,-1.199 -1.248,-1.746 6.972,-1.783 12.174,-2.725 16.023,-3.103 v 2.006 C 11.335,-2.488 6.564,-1.651 0,0"
         style="fill:#406b7a;fill-opacity:1;fill-rule:nonzero;stroke:none"
         id="path276"
         inkscape:connector-curvature="0" /></g><g
       id="g278"
       transform="translate(174.8049,168.2288)"><path
         d="m 0,0 c -0.384,1.054 -1.428,1.777 -3.103,2.147 -2.905,0.642 -7.999,0.285 -14.693,-0.989 -2.539,-0.483 -5.301,-1.095 -8.271,-1.84 -0.588,-0.147 -1.191,-0.307 -1.789,-0.463 -6.925,-1.809 -14.548,-4.205 -22.19,-6.987 -6.981,-2.54 -13.804,-5.342 -19.86,-8.146 -0.52,-0.24 -1.042,-0.48 -1.549,-0.72 -2.6,-1.231 -5.047,-2.46 -7.276,-3.654 -1.939,-1.038 -3.681,-2.032 -5.246,-2.984 v -2.363 c 1.706,1.08 3.737,2.27 6.191,3.584 2.199,1.178 4.617,2.393 7.186,3.609 0.273,0.13 0.558,0.259 0.834,0.389 6.178,2.887 13.204,5.785 20.404,8.406 7.811,2.844 15.599,5.28 22.625,7.091 0.384,0.099 0.776,0.204 1.156,0.299 4.61,1.156 8.756,1.999 12.265,2.51 4.372,0.636 7.753,0.755 9.782,0.305 0.923,-0.204 1.526,-0.524 1.655,-0.878 0.037,-0.103 0.192,-0.79 -1.202,-2.327 -0.716,-0.79 -1.834,-1.801 -3.602,-3.082 -3.423,-2.479 -8.411,-5.326 -14.474,-8.279 v -0.005 c 0,-0.772 -0.022,-1.516 -0.055,-2.247 6.983,3.352 16.858,8.619 20.2,13.027 C -0.027,-2.299 0.392,-1.076 0,0"
         style="fill:#406b7a;fill-opacity:1;fill-rule:nonzero;stroke:none"
         id="path280"
         inkscape:connector-curvature="0" /></g><g
       id="g282"
       transform="translate(106.7385,136.7679)"><path
         d="m 0,0 c -1.804,-0.452 -3.551,-0.86 -5.212,-1.218 -1.53,-0.329 -2.926,-0.598 -4.23,-0.83 0.462,-0.576 0.892,-1.175 1.281,-1.801 1.079,0.203 2.192,0.423 3.369,0.676 1.916,0.412 3.945,0.894 6.04,1.428 C 0.821,-1.198 0.405,-0.615 0,0"
         style="fill:#406b7a;fill-opacity:1;fill-rule:nonzero;stroke:none"
         id="path284"
         inkscape:connector-curvature="0" /></g><g
       id="g286"
       transform="translate(164.0383,145.2659)"><path
         d="m 0,0 v -2.33 c -1.46,0.89 -3.12,1.84 -5.06,2.88 -2.2,1.18 -4.62,2.39 -7.18,3.61 -0.28,0.13 -0.56,0.26 -0.84,0.39 -0.33,0.15 -0.67,0.31 -1.01,0.47 -5.98,2.76 -12.51,5.43 -19.39,7.93 -0.97,0.35 -1.93,0.7 -2.89,1.03 -6.81,2.4 -13.6,4.48 -19.74,6.06 -0.38,0.1 -0.77,0.21 -1.15,0.3 -2.47,0.62 -4.72,1.13 -6.76,1.54 -2.04,0.42 -3.87,0.73 -5.51,0.97 -2.81,0.41 -5.04,0.58 -6.77,0.58 -2.96,0 -4.42,-0.5 -4.66,-1.15 -0.17,-0.47 0.17,-1.26 1.17,-2.34 h -0.01 c 1.11,-1.21 3.04,-2.78 5.99,-4.68 2.95,-1.91 6.92,-4.14 12.12,-6.67 0,-0.78 0.03,-1.52 0.06,-2.25 -3.49,1.67 -7.7,3.83 -11.46,6.12 -3.76,2.28 -7.07,4.7 -8.74,6.9 -0.98,1.3 -1.4,2.52 -1.01,3.6 0.02,0.05 0.04,0.1 0.07,0.15 1.4,3.19 9.29,2.64 17.75,1.02 2.76,-0.53 5.57,-1.18 8.24,-1.85 0.59,-0.15 1.19,-0.3 1.79,-0.46 6.03,-1.57 12.65,-3.61 19.28,-5.95 0.97,-0.34 1.94,-0.68 2.91,-1.04 6.94,-2.52 13.51,-5.21 19.55,-7.99 0.11,-0.05 0.21,-0.1 0.31,-0.15 0.53,-0.24 1.04,-0.48 1.55,-0.72 2.6,-1.23 5.05,-2.46 7.28,-3.66 C -2.63,1.52 -1.26,0.75 0,0"
         style="fill:#406b7a;fill-opacity:1;fill-rule:nonzero;stroke:none"
         id="path288"
         inkscape:connector-curvature="0" /></g></g></svg>